Coordinates
version=1
nRows=29
nColumns=24
inDegrees=yes

Units are S.I. units (second, meters, Newtons, ...)
Angles are in degrees.

endheader
time	pelvis_tilt	pelvis_list	pelvis_rotation	pelvis_tx	pelvis_ty	pelvis_tz	hip_flexion_r	hip_adduction_r	hip_rotation_r	knee_angle_r	ankle_angle_r	subtalar_angle_r	mtp_angle_r	hip_flexion_l	hip_adduction_l	hip_rotation_l	knee_angle_l	ankle_angle_l	subtalar_angle_l	mtp_angle_l	lumbar_extension	lumbar_bending	lumbar_rotation
      4.87000000	    -12.46432771	      6.90164423	      5.26149816	     -1.65127542	     -0.03422118	      2.06378221	     13.38775531	    -14.14379295	    -16.14346152	    -56.07854864	    -15.91479718	     -3.71256240	    -19.80678441	     31.21604227	     12.35330342	     -3.37759222	    -21.58748001	     10.04667315	      2.10726335	    -54.24487255	      7.13050279	     -8.68526799	     -1.95035363
      4.88000000	    -12.49816980	      7.16869400	      5.21615619	     -1.63866004	     -0.03239657	      2.06259846	     15.16256412	    -14.38987316	    -15.13880166	    -57.88193600	    -14.71101306	     -5.62199146	    -20.06724370	     30.07662004	     12.62618875	     -3.49377028	    -21.05746112	     10.51416631	      2.28014263	    -54.32029614	      7.11593406	     -8.91628143	     -2.25017639
      4.89000000	    -12.47293950	      7.35940291	      5.16150664	     -1.62612682	     -0.03041349	      2.06156361	     16.87727749	    -14.46803417	    -14.13471032	    -59.38255024	    -13.30626111	     -6.96022227	    -20.21122974	     28.83468327	     12.81743187	     -3.53907107	    -20.45211869	     10.99534710	      2.48752084	    -54.43237299	      7.04100563	     -9.06728354	     -2.47217074
      4.90000000	    -12.44653050	      7.47270691	      5.07353153	     -1.61366634	     -0.02836290	      2.06062578	     18.60382684	    -14.38100858	    -13.06881436	    -60.58805495	    -11.83140184	     -7.64033330	    -20.28110915	     27.54731592	     12.92381731	     -3.56133678	    -19.74643164	     11.46985998	      2.67873894	    -54.66591074	      6.98198978	     -9.12599996	     -2.76192921
      4.91000000	    -12.36368050	      7.56856319	      5.03646868	     -1.60126534	     -0.02629232	      2.05971824	     20.21039294	    -14.25122032	    -12.11006246	    -61.48890973	    -10.28881051	     -7.80864056	    -20.03099892	     26.15069487	     13.04283373	     -3.48939442	    -18.95223853	     11.88880023	      2.84019418	    -54.81343860	      6.85616318	     -9.18279373	     -3.04015661
      4.92000000	    -12.27101668	      7.58227752	      4.96947808	     -1.58893488	     -0.02418431	      2.05883571	     21.76337010	    -13.97106080	    -11.13736908	    -62.05737748	     -8.74630193	     -7.47528951	    -19.58900161	     24.70456257	     13.07378712	     -3.40554578	    -18.05966121	     12.25590342	      2.97590803	    -54.93436665	      6.74004760	     -9.13656862	     -3.33867314
      4.93000000	    -12.16933622	      7.50632730	      4.90215360	     -1.57670976	     -0.02208124	      2.05795214	     23.22923534	    -13.55165340	    -10.22086498	    -62.28320577	     -7.21360120	     -6.84875030	    -19.03259566	     23.23233838	     13.01945663	     -3.27563081	    -17.11120966	     12.58093144	      3.08871153	    -55.03356529	      6.61902740	     -8.99318697	     -3.61404492
      4.94000000	    -12.07013606	      7.32646751	      4.85584963	     -1.56464637	     -0.02002085	      2.05704275	     24.60475842	    -13.00231915	     -9.40901327	    -62.16833337	     -5.72102638	     -6.08575737	    -18.46851703	     21.77074097	     12.87107288	     -3.08160919	    -16.14602052	     12.86637167	      3.17846804	    -55.09238086	      6.49543289	     -8.74298595	     -3.89406655
      4.95000000	    -11.95241563	      7.08129034	      4.80674683	     -1.55276207	     -0.01802352	      2.05612722	     25.87981332	    -12.37490950	     -8.68932874	    -61.73778108	     -4.34273553	     -5.32974592	    -17.93785234	     20.29961537	     12.66238758	     -2.80856772	    -15.16231843	     13.10619561	      3.18307544	    -55.13189984	      6.33732464	     -8.41923903	     -4.17709350
      4.96000000	    -11.85824600	      6.76133965	      4.80820065	     -1.54098661	     -0.01616784	      2.05516084	     27.06883959	    -11.71805459	     -8.17351674	    -61.00050045	     -3.03399893	     -4.69215091	    -17.56527023	     18.87911960	     12.39356943	     -2.47598182	    -14.19947617	     13.28825708	      3.14185801	    -55.11759691	      6.19677936	     -8.02476203	     -4.46394904
      4.97000000	    -11.69130018	      6.40612858	      4.82599449	     -1.52928184	     -0.01438860	      2.05414434	     28.08405217	    -11.07018633	     -7.83005413	    -59.97857953	     -1.90570807	     -4.25861684	    -17.42767143	     17.38109147	     12.10009665	     -2.02469229	    -13.21807372	     13.41869999	      2.94918872	    -55.03473268	      5.97094014	     -7.58293749	     -4.79672101
      4.98000000	    -11.53846230	      6.00762443	      4.90213021	     -1.51758775	     -0.01279074	      2.05309026	     29.00511920	    -10.45762493	     -7.72667981	    -58.68592464	     -0.93251492	     -4.09042209	    -17.59317754	     15.91632221	     11.76876065	     -1.53779356	    -12.25627389	     13.49871032	      2.72737169	    -54.87443355	      5.76015614	     -7.10466546	     -5.11916449
      4.99000000	    -11.38604443	      5.60181069	      5.00036330	     -1.50594444	     -0.01140822	      2.05207220	     29.84790462	     -9.88428893	     -7.77243372	    -57.16662457	     -0.14877978	     -4.17561183	    -18.12504737	     14.47504663	     11.41796285	     -1.07483558	    -11.31817614	     13.56128454	      2.51214013	    -54.61553161	      5.54298482	     -6.62409025	     -5.47672598
      5.00000000	    -11.22976202	      5.32309542	      5.00088692	     -1.49429687	     -0.01036846	      2.05118080	     30.67818419	     -9.40739580	     -7.64876129	    -55.61049187	      1.41732689	     -3.85293517	    -23.32514440	     13.02039845	     11.17523511	     -0.73611431	    -10.34539475	     13.28606936	      2.18624216	    -52.65408646	      5.32521224	     -6.25714338	     -5.69601054
      5.01000000	    -11.26294657	      4.92084884	      5.20053204	     -1.48276600	     -0.00969685	      2.05018852	     31.56293940	     -8.96511180	     -7.96712866	    -53.71685580	      1.83389358	     -4.21829726	    -23.57082869	     11.85889647	     10.82229486	     -0.36181777	     -9.52892496	     13.44675606	      2.11021531	    -52.56995225	      5.29248147	     -5.81424587	     -6.11907672
      5.02000000	    -11.01666688	      4.59291966	      5.30650369	     -1.47115715	     -0.00897889	      2.04929940	     32.04974233	     -8.56373395	     -8.22688229	    -51.65556206	      2.47234883	     -4.24041981	    -24.55542361	     10.33934580	     10.50033148	     -0.01630535	     -8.60342480	     13.52934587	      1.93328505	    -52.30702341	      4.96934862	     -5.40169530	     -6.45581395
      5.03000000	    -11.03536295	      4.33502966	      5.28886348	     -1.45965436	     -0.00886061	      2.04867167	     32.84297669	     -8.15476589	     -8.25744438	    -49.55423076	      3.57404633	     -4.06245359	    -29.00175191	      9.15766699	     10.24566436	      0.14123419	     -7.72630836	     13.43775479	      1.63931941	    -51.22443321	      4.92691241	     -5.07739312	     -6.60616545
      5.04000000	    -11.12672079	      4.04920140	      5.42323615	     -1.44818295	     -0.00904206	      2.04799268	     33.59378996	     -7.84814774	     -8.58641354	    -47.24972830	      3.95861441	     -3.99891839	    -29.19865333	      8.11378169	      9.96469331	      0.28165806	     -6.97007705	     13.65640642	      1.62518945	    -51.14775291	      4.95287358	     -4.76259727	     -6.92883415
      5.05000000	    -11.02077917	      3.85603140	      5.41516038	     -1.43665215	     -0.00928325	      2.04745947	     34.08550314	     -7.58146577	     -8.82189077	    -44.86647365	      4.62792228	     -3.41839270	    -30.09390209	      6.84198142	      9.74587558	      0.27311894	     -6.18134428	     13.83697824	      1.54305516	    -51.05632071	      4.77193861	     -4.49809561	     -7.07114427
      5.06000000	    -11.16467332	      3.58522171	      5.46906189	     -1.42520341	     -0.00996678	      2.04697483	     34.79275908	     -7.29156107	     -9.19580918	    -42.35747406	      5.03595653	     -2.80808708	    -30.45290192	      5.95619337	      9.46497306	      0.22656895	     -5.59263401	     14.16852266	      1.56648312	    -51.00316253	      4.85264875	     -4.18865876	     -7.28134661
      5.07000000	    -11.21695626	      3.39474313	      5.43553449	     -1.41376427	     -0.01082156	      2.04659979	     35.37071089	     -7.07119318	     -9.56915511	    -39.82177006	      5.62094003	     -1.67618351	    -30.81801178	      5.00310467	      9.25967247	      0.04524693	     -5.06691480	     14.53762128	      1.56427593	    -50.99102539	      4.82653747	     -3.93681394	     -7.37730595
      5.08000000	    -11.21224139	      3.07842207	      5.33049755	     -1.40229920	     -0.01170208	      2.04642658	     35.79500012	     -6.64898411	     -9.93943959	    -37.11415367	      6.20163163	     -0.43351966	    -32.02986549	      4.05054735	      8.90496284	     -0.12814342	     -4.64148636	     15.02602469	      1.48068470	    -51.11868026	      4.75204925	     -3.53939927	     -7.38028486
      5.09000000	    -11.49491455	      2.83608970	      5.28687273	     -1.39105416	     -0.01310732	      2.04622578	     36.52315966	     -6.39775407	    -10.41380390	    -34.45069361	      6.70210941	      1.23736555	    -32.15724992	      3.52940074	      8.67317950	     -0.36409949	     -4.43884037	     15.54715818	      1.45281612	    -51.04077977	      4.94241431	     -3.25020101	     -7.41471894
      5.10000000	    -11.63131234	      2.44274330	      5.21274576	     -1.37977999	     -0.01431523	      2.04616560	     36.95578310	     -5.93378945	    -10.92544066	    -31.59554068	      7.10705167	      2.95121333	    -32.48361650	      2.90382145	      8.24916367	     -0.62381801	     -4.32403959	     16.14809787	      1.49677647	    -50.92868776	      4.98418915	     -2.78370177	     -7.41428281
      5.11000000	    -11.79451797	      2.02453418	      5.08493243	     -1.36864441	     -0.01561149	      2.04623136	     37.34830105	     -5.39178625	    -11.35852024	    -28.67707360	      7.47151928	      4.76581089	    -32.76437764	      2.40475409	      7.79121319	     -0.97665443	     -4.38153012	     16.81960196	      1.58754385	    -50.77848664	      5.02456509	     -2.27790899	     -7.34818944
      5.12000000	    -11.96420634	      1.61780885	      4.92481370	     -1.35751267	     -0.01695895	      2.04642944	     37.65758242	     -4.81328205	    -11.70334275	    -25.70366045	      7.80716199	      6.56538376	    -33.04462959	      1.97197371	      7.32688021	     -1.43576461	     -4.56112850	     17.51107356	      1.80836288	    -50.60589094	      5.05798390	     -1.77860141	     -7.21736494
      5.13000000	    -12.10212228	      1.25441021	      4.76038398	     -1.34623830	     -0.01834699	      2.04675399	     37.80552181	     -4.23681353	    -11.94297420	    -22.64360084	      8.09855857	      8.24029438	    -33.32478836	      1.53741131	      6.88226659	     -1.96374182	     -4.83954311	     18.19889534	      2.16581382	    -50.41896762	      5.05987212	     -1.32541295	     -7.05970100
      5.14000000	    -12.16073921	      0.96416679	      4.63502765	     -1.33465779	     -0.01977596	      2.04718623	     37.70169113	     -3.71214598	    -12.08521302	    -19.46816172	      8.31829775	      9.70922443	    -33.56763233	      1.02240902	      6.48245983	     -2.48889140	     -5.19145038	     18.85946568	      2.64464743	    -50.21217982	      4.99671502	     -0.95853249	     -6.91517191
      5.15000000	    -12.09318640	      0.73599714	      4.60268591	     -1.32265519	     -0.02120624	      2.04769988	     37.26098542	     -3.26003062	    -12.19572283	    -16.15822080	      8.41878648	     10.92510461	    -33.70182740	      0.37351166	      6.10695758	     -2.94292235	     -5.62508112	     19.49044384	      3.24903030	    -49.95992356	      4.83566587	     -0.67866167	     -6.84922474
